HIERARCHY
ROOT Hips
{
	OFFSET 0.00000 0.00000 0.00000
	CHANNELS 6 Xposition Yposition Zposition Zrotation Yrotation Xrotation 
	JOINT LHipJoint
	{
		OFFSET 0 0 0
		CHANNELS 3 Zrotation Yrotation Xrotation
		JOINT LeftUpLeg
		{
			OFFSET 1.37590 -1.78394 0.89329
			CHANNELS 3 Zrotation Yrotation Xrotation
			JOINT LeftLeg
			{
				OFFSET 2.47928 -6.81178 0.00000
				CHANNELS 3 Zrotation Yrotation Xrotation
				JOINT LeftFoot
				{
					OFFSET 2.63345 -7.23535 0.00000
					CHANNELS 3 Zrotation Yrotation Xrotation
					JOINT LeftToeBase
					{
						OFFSET 0.23938 -0.65768 2.27012
						CHANNELS 3 Zrotation Yrotation Xrotation
						End Site
						{
							OFFSET 0.00000 -0.00000 1.18363
						}
					}
				}
			}
		}
	}
	JOINT RHipJoint
	{
		OFFSET 0 0 0
		CHANNELS 3 Zrotation Yrotation Xrotation
		JOINT RightUpLeg
		{
			OFFSET -1.33617 -1.78394 0.89329
			CHANNELS 3 Zrotation Yrotation Xrotation
			JOINT RightLeg
			{
				OFFSET -2.56922 -7.05888 0.00000
				CHANNELS 3 Zrotation Yrotation Xrotation
				JOINT RightFoot
				{
					OFFSET -2.56568 -7.04915 0.00000
					CHANNELS 3 Zrotation Yrotation Xrotation
					JOINT RightToeBase
					{
						OFFSET -0.27533 -0.75646 2.18105
						CHANNELS 3 Zrotation Yrotation Xrotation
						End Site
						{
							OFFSET -0.00000 -0.00000 1.15233
						}
					}
				}
			}
		}
	}
	JOINT LowerBack
	{
		OFFSET 0 0 0
		CHANNELS 3 Zrotation Yrotation Xrotation
		JOINT Spine
		{
			OFFSET 0.06190 2.15152 -0.00935
			CHANNELS 3 Zrotation Yrotation Xrotation
			JOINT Spine1
			{
				OFFSET 0.06334 2.15332 0.00872
				CHANNELS 3 Zrotation Yrotation Xrotation
				JOINT Neck
				{
					OFFSET 0 0 0
					CHANNELS 3 Zrotation Yrotation Xrotation
					JOINT Neck1
					{
						OFFSET -0.04202 1.66908 0.23524
						CHANNELS 3 Zrotation Yrotation Xrotation
						JOINT Head
						{
							OFFSET 0.07510 1.69357 -0.24440
							CHANNELS 3 Zrotation Yrotation Xrotation
							End Site
							{
								OFFSET 0.02556 1.71719 -0.11000
							}
						}
					}
				}
				JOINT LeftShoulder
				{
					OFFSET 0 0 0
					CHANNELS 3 Zrotation Yrotation Xrotation
					JOINT LeftArm
					{
						OFFSET 3.67168 1.26306 -0.41342
						CHANNELS 3 Zrotation Yrotation Xrotation
						JOINT LeftForeArm
						{
							OFFSET 4.68510 -0.00000 -0.00000
							CHANNELS 3 Zrotation Yrotation Xrotation
							JOINT LeftHand
							{
								OFFSET 3.39626 -0.00000 -0.00000
								CHANNELS 3 Zrotation Yrotation Xrotation
								JOINT LeftFingerBase
								{
									OFFSET 0 0 0
									CHANNELS 3 Zrotation Yrotation Xrotation
									JOINT LeftHandIndex1
									{
										OFFSET 0.48608 -0.00000 -0.00000
										CHANNELS 3 Zrotation Yrotation Xrotation
										End Site
										{
											OFFSET 0.39189 -0.00000 -0.00000
										}
									}
								}
								JOINT LThumb
								{
									OFFSET 0 0 0
									CHANNELS 3 Zrotation Yrotation Xrotation
									End Site
									{
										OFFSET 0.39787 -0.00000 0.39787
									}
								}
							}
						}
					}
				}
				JOINT RightShoulder
				{
					OFFSET 0 0 0
					CHANNELS 3 Zrotation Yrotation Xrotation
					JOINT RightArm
					{
						OFFSET -3.04136 1.42992 -0.76390
						CHANNELS 3 Zrotation Yrotation Xrotation
						JOINT RightForeArm
						{
							OFFSET -5.55576 -0.00000 -0.00000
							CHANNELS 3 Zrotation Yrotation Xrotation
							JOINT RightHand
							{
								OFFSET -3.32774 -0.00000 -0.00000
								CHANNELS 3 Zrotation Yrotation Xrotation
								JOINT RightFingerBase
								{
									OFFSET 0 0 0
									CHANNELS 3 Zrotation Yrotation Xrotation
									JOINT RightHandIndex1
									{
										OFFSET -0.50763 -0.00000 -0.00000
										CHANNELS 3 Zrotation Yrotation Xrotation
										End Site
										{
											OFFSET -0.40926 -0.00000 -0.00000
										}
									}
								}
								JOINT RThumb
								{
									OFFSET 0 0 0
									CHANNELS 3 Zrotation Yrotation Xrotation
									End Site
									{
										OFFSET -0.41551 -0.00000 0.41551
									}
								}
							}
						}
					}
				}
			}
		}
	}
}
MOTION
Frames: 6
Frame Time: .0083333
-1.7558 17.9199 6.8901 -134.3660 -78.5172 144.5300 0.0000 0.0000 0.0000 0.0520 -9.4700 -30.8554 1.4670 7.6542 21.6685 0.0583 5.8553 -9.8316 0.7060 -5.3703 -14.9679 0.0000 0.0000 0.0000 32.3555 7.4839 -4.0669 -1.0570 -6.5369 18.3505 -0.5380 -0.9266 -14.2225 -0.1161 -2.1970 6.0505 2.6267 -2.0589 1.4789 2.5765 -2.6710 -1.4113 1.2678 -1.3726 -2.2746 -4.4877 1.5299 -18.2973 10.7707 1.1606 14.6431 4.4440 1.3032 7.4178 -0.0000 0.0000 0.0000 -59.9400 -53.9481 14.3481 37.2594 -46.3597 -16.4275 -0.0000 0.0000 -1.8910 13.9370 26.0246 6.2140 -7.1250 0.0000 -0.0000 -17.1967 55.8481 -4.6761 -0.0000 0.0000 0.0000 86.5118 -2.2126 8.0180 -14.0245 22.7697 -2.8376 0.0000 0.0000 19.4132 -16.9632 -25.2624 7.4168 7.1250 -0.0000 -0.0000 13.7002 -55.7118 -3.6505
-1.9075 17.9065 6.9117 -135.6200 -78.2673 145.7410 0.0000 0.0000 0.0000 0.2422 -9.7264 -30.7443 1.3463 7.3460 20.7444 0.0338 6.1505 -9.6299 0.7069 -5.3738 -14.9778 0.0000 0.0000 0.0000 32.2023 7.4033 -3.6546 -1.0913 -6.6388 18.6495 -0.5553 -0.7621 -14.3732 -0.0886 -1.9194 5.2829 2.7405 -2.0082 1.3925 2.6366 -2.6064 -1.3866 1.2596 -1.3422 -2.2032 -4.3753 1.5975 -18.2931 10.5485 1.2680 14.6425 4.3618 1.3412 7.4097 -0.0000 0.0000 0.0000 -60.5074 -52.4995 15.7183 38.4883 -47.1483 -17.3227 -0.0000 0.0000 -0.5115 14.4945 26.1081 6.4903 -7.1250 0.0000 -0.0000 -16.6787 56.0403 -4.6080 -0.0000 0.0000 0.0000 86.6215 -2.1420 8.2285 -14.1275 22.9167 -2.8776 0.0000 0.0000 19.3920 -16.7544 -25.0169 7.2553 7.1250 -0.0000 -0.0000 13.7892 -55.4279 -3.5791
-2.0601 17.8928 6.9334 -136.7560 -78.0330 146.8240 0.0000 0.0000 0.0000 0.4117 -9.9901 -30.6203 1.2411 7.0642 19.9056 0.0091 6.4412 -9.4203 0.7052 -5.3675 -14.9596 0.0000 0.0000 0.0000 32.0361 7.3146 -3.2726 -1.1327 -6.7595 19.0048 -0.5706 -0.6026 -14.5019 -0.0640 -1.6323 4.4905 2.8470 -1.9632 1.3106 2.6951 -2.5497 -1.3577 1.2543 -1.3154 -2.1295 -4.2568 1.6627 -18.2854 10.3318 1.3693 14.6376 4.2797 1.3769 7.4006 -0.0000 -0.0000 0.0000 -61.1418 -50.9998 17.1143 39.7040 -47.8935 -18.2193 -0.0000 -0.0000 0.8708 15.0120 26.1708 6.7455 -7.1250 0.0000 -0.0000 -16.1865 56.2055 -4.5322 -0.0000 -0.0000 0.0000 86.7289 -2.0713 8.4321 -14.2295 23.0619 -2.9174 0.0000 0.0000 19.3766 -16.5469 -24.7748 7.0969 7.1250 -0.0000 -0.0000 13.8791 -55.1484 -3.5081
-2.2137 17.8789 6.9551 -137.7840 -77.8163 147.7910 0.0000 0.0000 0.0000 0.5567 -10.2549 -30.4904 1.1506 6.8108 19.1561 -0.0148 6.7142 -9.2020 0.7006 -5.3501 -14.9098 0.0000 0.0000 0.0000 31.8562 7.2177 -2.9274 -1.1821 -6.9002 19.4199 -0.5837 -0.4483 -14.6034 -0.0430 -1.3383 3.6800 2.9463 -1.9240 1.2319 2.7518 -2.5013 -1.3261 1.2516 -1.2926 -2.0545 -4.1343 1.7250 -18.2732 10.1220 1.4641 14.6282 4.1985 1.4100 7.3902 -0.0000 0.0000 0.0000 -61.8356 -49.4557 18.5266 40.8872 -48.5868 -19.1020 -0.0000 -0.0000 2.2627 15.4891 26.2010 6.9757 -7.1250 0.0000 -0.0000 -15.7153 56.3320 -4.4441 -0.0000 0.0000 0.0000 86.8338 -2.0027 8.6275 -14.3309 23.2058 -2.9573 0.0000 0.0000 19.3649 -16.3418 -24.5403 6.9433 7.1250 -0.0000 -0.0000 13.9711 -54.8772 -3.4391
-2.3683 17.8647 6.9769 -138.7210 -77.6164 148.6580 0.0000 0.0000 0.0000 0.6720 -10.5116 -30.3543 1.0736 6.5866 18.4963 -0.0375 6.9595 -8.9739 0.6926 -5.3203 -14.8243 0.0000 0.0000 0.0000 31.6627 7.1118 -2.6199 -1.2400 -7.0610 19.8963 -0.5939 -0.2997 -14.6731 -0.0258 -1.0367 2.8498 3.0379 -1.8896 1.1570 2.8063 -2.4595 -1.2921 1.2514 -1.2729 -1.9789 -4.0087 1.7838 -18.2561 9.9197 1.5517 14.6161 4.1184 1.4404 7.3790 0.0000 0.0000 0.0000 -62.5865 -47.8719 19.9490 42.0207 -49.2226 -19.9562 -0.0000 -0.0000 3.6735 15.9263 26.1982 7.1802 -7.1250 0.0000 -0.0000 -15.2647 56.4190 -4.3447 0.0000 0.0000 0.0000 86.9364 -1.9379 8.8114 -14.4313 23.3479 -2.9969 0.0000 0.0000 19.3566 -16.1439 -24.3092 6.7954 7.1250 -0.0000 -0.0000 14.0577 -54.6116 -3.3694
-2.5240 17.8504 6.9987 -139.5920 -77.4320 149.4500 0.0000 0.0000 0.0000 0.7519 -10.7531 -30.2099 1.0090 6.3915 17.9248 -0.0587 7.1766 -8.7351 0.6813 -5.2775 -14.7017 0.0000 0.0000 0.0000 31.4538 6.9972 -2.3499 -1.3070 -7.2421 20.4347 -0.6008 -0.1545 -14.7036 -0.0128 -0.7300 2.0063 3.1211 -1.8589 1.0854 2.8573 -2.4231 -1.2547 1.2526 -1.2555 -1.9015 -3.8807 1.8389 -18.2369 9.7251 1.6318 14.6029 4.0397 1.4679 7.3680 -0.0000 -0.0000 0.0000 -63.3866 -46.2552 21.3718 43.0830 -49.7940 -20.7641 -0.0000 -0.0000 5.1092 16.3251 26.1666 7.3597 -7.1250 0.0000 -0.0000 -14.8364 56.4702 -4.2375 -0.0000 -0.0000 0.0000 87.0371 -1.8775 8.9840 -14.5312 23.4890 -3.0366 0.0000 0.0000 19.3494 -15.9515 -24.0890 6.6542 7.1250 -0.0000 -0.0000 14.1446 -54.3580 -3.3027
